<svg xmlns="http://www.w3.org/2000/svg" viewBox="0 0 800 430"><defs><linearGradient id="g" x1="0" x2="1"><stop stop-color="#edf9ff"/><stop offset="1" stop-color="#cfeaff"/></linearGradient><filter id="s"><feDropShadow dx="0" dy="12" stdDeviation="12" flood-opacity=".18"/></filter></defs><rect width="800" height="430" rx="28" fill="url(#g)"/><g filter="url(#s)"><rect x="70" y="90" width="420" height="230" rx="20" fill="#fff" stroke="#5a9ed3" stroke-width="5"/><rect x="100" y="125" width="360" height="42" rx="8" fill="#073d70"/><rect x="100" y="190" width="360" height="42" rx="8" fill="#0a5aa2"/><rect x="100" y="255" width="360" height="42" rx="8" fill="#0d6dbb"/><g fill="#8fe7ff"><circle cx="125" cy="146" r="6"/><circle cx="157" cy="146" r="6"/><circle cx="189" cy="146" r="6"/><circle cx="221" cy="146" r="6"/><circle cx="253" cy="146" r="6"/><circle cx="285" cy="146" r="6"/><circle cx="317" cy="146" r="6"/><circle cx="349" cy="146" r="6"/><circle cx="381" cy="146" r="6"/><circle cx="413" cy="146" r="6"/><circle cx="125" cy="211" r="6"/><circle cx="157" cy="211" r="6"/><circle cx="189" cy="211" r="6"/><circle cx="221" cy="211" r="6"/><circle cx="253" cy="211" r="6"/><circle cx="285" cy="211" r="6"/><circle cx="317" cy="211" r="6"/><circle cx="349" cy="211" r="6"/><circle cx="381" cy="211" r="6"/><circle cx="413" cy="211" r="6"/><circle cx="125" cy="276" r="6"/><circle cx="157" cy="276" r="6"/><circle cx="189" cy="276" r="6"/><circle cx="221" cy="276" r="6"/><circle cx="253" cy="276" r="6"/><circle cx="285" cy="276" r="6"/><circle cx="317" cy="276" r="6"/><circle cx="349" cy="276" r="6"/><circle cx="381" cy="276" r="6"/><circle cx="413" cy="276" r="6"/></g><circle cx="635" cy="185" r="105" fill="#fff" stroke="#0759a8" stroke-width="6"/><circle cx="635" cy="185" r="72" fill="#d8f5ff"/><path d="M590 185 q45-55 90 0 q-45 55-90 0z" fill="#18b9e8"/><circle cx="635" cy="185" r="18" fill="#0759a8"/></g><text x="70" y="385" font-family="Arial" font-size="30" font-weight="700" fill="#083d70">Switches • Routers • Wi-Fi • Firewall</text></svg>